<svg width="50" height="51" viewBox="0 0 50 51" fill="none" xmlns="http://www.w3.org/2000/svg">
<path d="M24.9626 0.5C11.1748 0.5 1.35443e-07 11.6748 1.35443e-07 25.46C-0.000341365 28.7382 0.645102 31.9844 1.89947 35.0132C3.15384 38.0419 4.99256 40.7939 7.31061 43.112C9.62867 45.43 12.3807 47.2688 15.4094 48.5231C18.4382 49.7775 21.6844 50.4229 24.9626 50.4226C38.7452 50.4226 49.9226 39.2478 49.9226 25.46C49.9226 11.6748 38.7452 0.5 24.9626 0.5ZM27.2922 9.5116C29.7258 9.5116 30.4408 10.9234 30.4408 12.538C30.4408 14.553 28.8288 16.4172 26.0754 16.4172C23.7718 16.4172 22.6746 15.2602 22.7422 13.344C22.7422 11.7294 24.0916 9.5116 27.2922 9.5116ZM21.0574 40.41C19.3934 40.41 18.1792 39.3986 19.3414 34.9656L21.2472 27.1006C21.5774 25.8422 21.632 25.3378 21.2472 25.3378C20.7506 25.3378 18.59 26.2062 17.316 27.0642L16.4866 25.7044C20.5296 22.327 25.1784 20.3458 27.1674 20.3458C28.8314 20.3458 29.107 22.3114 28.2776 25.3378L26.0936 33.6058C25.7062 35.067 25.8726 35.5714 26.26 35.5714C26.7592 35.5714 28.392 34.9682 29.9988 33.702L30.94 34.9656C27.0062 38.8968 22.7188 40.41 21.0574 40.41Z" fill="black"/>
</svg>
