<?xml version="1.0" encoding="UTF-8"?>
<svg xmlns="http://www.w3.org/2000/svg" viewBox="0 0 1920 1080">
  <defs>
    <style>
      .cls-1 {
        fill: none;
        stroke: #91a644;
        stroke-linecap: round;
        stroke-linejoin: round;
        stroke-width: 10px;
      }

      .cls-2 {
        fill: #91a644;
      }
    </style>
  </defs>
  <g id="Calque_1" data-name="Calque 1">
    <path class="cls-2" d="M1463.48,676.75c28.31-68.68,88.93-125.94,167.74-116.53,11.78,1.31,23.36,3.96,34.66,7.41,0,0-.87,3.75-.87,3.75-10.88,40.67-38.6,76.62-74.9,97.91-18.06,10.6-38.3,17.81-58.85,21.63-23.75,4.68-48.04,4.77-71.97,2.95,7.38-9,15.21-18.27,23.04-26.7,30.03-32.36,80.19-80.86,124.76-88.02,8.94-1.36,18.43-.88,26.94,2.56,0,0-3.29,6.61-3.29,6.61-1.59-.9-3.43-1.73-5.2-2.36-21.76-7.8-45.95-2.84-66.45,6.69-38.33,18.04-69.52,51.42-95.61,84.11h0Zm0,0c28.67-40.34,68.39-85.31,117.98-98.34,16.18-4.15,34.11-4.58,49.81,1.95,1.18,.54,2.14,.93,3.35,1.64,0,0-3.29,6.61-3.29,6.61-49.23-17.48-128.87,69.01-158.27,104.04,0,0-3.53-8-3.53-8,30.02,1.64,60.38-1.1,88.71-11.17,4.18-1.52,9.84-3.78,13.78-5.67,22.58-10.3,42.51-26.2,57.82-45.73,11.45-14.66,20.53-31.32,26.17-49.07,.36-1.15,.71-2.39,.98-3.42,0,0,2.81,4.83,2.81,4.83-39.32-12.78-80.88-10.54-116.77,10.87-35.24,21.05-61.92,54.73-79.55,91.46h0Z"/>
    <path class="cls-2" d="M1441.13,698.5c-226.98,77.22-475.89,89.27-709.64,36.23-23.54-5.22-47.68-11.61-70.91-18.19-19.13-5.56-38.22-11.6-57.06-18.04,12.18,3.4,26.17,7.05,38.52,10.26,16.42,4.12,35.11,8.67,51.67,12.26,248.34,55.38,502.66,46.38,747.42-22.52h0Z"/>
  </g>
  <g id="joy">
    <path class="cls-1" d="M539.93,393.53c-3.98-.21-7.94-.3-11.89-.27-42.67,.26-83.47,14.46-115.37,43.45-37.28,33.87-55.61,81.75-55.28,132.37,0,1.44,.03,2.89,.06,4.34-135.62-38.88-230.26-108.94-239.62-157.49-9.05-46.93,62.52-69.05,78.9-73.72-2.01-7.88-17.04-70.68,22.22-107.31,39.32-36.68,100.54-16.75,109.92-13.44l.38,.33,.15-.14c-.15-.06-.33-.12-.53-.19l-.12-.1c23.7-75.85,56.46-71.04,63.95-69.39,43.94,9.65,102.9,104.6,147.22,241.57Z"/>
    <path class="cls-2" d="M285.19,405.44c17.38,7.85,33.08,18.25,48.42,29.34,15.19,11.29,29.82,23.15,42.5,37.4-17.4-7.83-33.09-18.23-48.42-29.34-15.18-11.31-29.8-23.16-42.5-37.4h0Z"/>
    <path class="cls-2" d="M375.84,325.87c13.13,12.5,23.81,26.82,33.93,41.68,9.91,15,19.08,30.33,25.62,47.24-13.15-12.48-23.83-26.81-33.93-41.68-9.89-15.01-19.06-30.34-25.62-47.24h0Z"/>
  </g>
</svg>