<svg width="49" height="50" viewBox="0 0 49 50" fill="none" xmlns="http://www.w3.org/2000/svg">
<path d="M44.3297 34.0152C43.9911 36.6 42.7254 38.9739 40.7679 40.6955C38.8104 42.4171 36.2943 43.3693 33.6875 43.375C18.4898 43.375 6.125 31.0102 6.125 15.8125C6.13075 13.2057 7.08294 10.6896 8.80454 8.73211C10.5261 6.77463 12.9 5.50892 15.4848 5.17031C16.1437 5.09725 16.8087 5.23598 17.3835 5.56638C17.9582 5.89677 18.4128 6.40166 18.6813 7.00781L22.5285 15.9848C22.7281 16.4507 22.8081 16.9592 22.7613 17.4639C22.7145 17.9686 22.5424 18.4537 22.2605 18.875L19.0832 23.7367C20.522 26.6566 22.8927 29.0138 25.8207 30.4359L30.625 27.2395C31.0459 26.9557 31.5322 26.784 32.0379 26.7405C32.5436 26.6969 33.052 26.783 33.5152 26.9906L42.4922 30.8187C43.0983 31.0872 43.6032 31.5418 43.9336 32.1165C44.264 32.6913 44.4027 33.3563 44.3297 34.0152ZM30.1273 9.63008C32.4581 10.2669 34.5826 11.5004 36.2911 13.2089C37.9996 14.9174 39.2331 17.0419 39.8699 19.3727C39.9544 19.6999 40.1448 19.99 40.4114 20.1977C40.678 20.4055 41.0058 20.5191 41.3438 20.5211C41.4798 20.5208 41.6151 20.5015 41.7457 20.4637C41.9404 20.4127 42.1229 20.3235 42.2826 20.2011C42.4423 20.0787 42.576 19.9257 42.6758 19.751C42.7756 19.5763 42.8396 19.3835 42.8639 19.1837C42.8883 18.984 42.8725 18.7814 42.8176 18.5879C42.052 15.7334 40.5489 13.1306 38.4591 11.0409C36.3694 8.95113 33.7666 7.44799 30.9121 6.68242C30.7124 6.60965 30.4997 6.57927 30.2875 6.59322C30.0754 6.60716 29.8685 6.66511 29.68 6.76339C29.4915 6.86168 29.3256 6.99813 29.1927 7.16407C29.0598 7.33001 28.9629 7.5218 28.9083 7.72722C28.8536 7.93265 28.8422 8.14721 28.875 8.35725C28.9078 8.56729 28.9839 8.7682 29.0986 8.9472C29.2133 9.1262 29.364 9.27936 29.5411 9.39693C29.7182 9.51449 29.9179 9.5939 30.1273 9.63008ZM28.5387 15.5445C29.8343 15.8992 31.0151 16.5852 31.965 17.535C32.9148 18.4849 33.6008 19.6657 33.9555 20.9613C34.037 21.2902 34.2265 21.5822 34.4938 21.7904C34.761 21.9987 35.0905 22.1111 35.4293 22.1098C35.5591 22.111 35.6884 22.0917 35.8121 22.0523C36.0085 22.0035 36.1931 21.9158 36.3549 21.7943C36.5167 21.6728 36.6526 21.5201 36.7543 21.3452C36.856 21.1703 36.9216 20.9767 36.9472 20.776C36.9728 20.5752 36.9578 20.3714 36.9031 20.1766C36.4197 18.3573 35.4641 16.698 34.133 15.367C32.802 14.0359 31.1427 13.0803 29.3234 12.5969C29.1237 12.5241 28.911 12.4937 28.6989 12.5077C28.4867 12.5216 28.2799 12.5796 28.0914 12.6778C27.9029 12.7761 27.7369 12.9126 27.604 13.0785C27.4711 13.2445 27.3743 13.4362 27.3196 13.6417C27.2649 13.8471 27.2536 14.0617 27.2863 14.2717C27.3191 14.4817 27.3953 14.6827 27.51 14.8617C27.6246 15.0407 27.7753 15.1938 27.9524 15.3114C28.1295 15.4289 28.3292 15.5084 28.5387 15.5445Z" fill="black"/>
</svg>
