<?xml version="1.0" encoding="UTF-8"?>
<svg id="Calque_1" data-name="Calque 1" xmlns="http://www.w3.org/2000/svg" viewBox="0 0 1920 1080">
  <defs>
    <style>
      .cls-1 {
        fill: #91a644;
      }
    </style>
  </defs>
  <path class="cls-1" d="M1276.16,518.35c28.85-68.53,84.14-132.82,159.23-149.64,33.94-7.75,69.67-4.51,102.81,5.38,0,0,3.68,1.09,3.68,1.09-1.76,8.1-4.25,15.96-7.28,23.63-18.25,46.51-52.62,86.81-96.5,110.93-2.29,1.18-6.86,3.66-9.15,4.85-3.58,1.76-8.13,3.69-11.76,5.39-3.18,1.43-11.21,4.35-14.45,5.64-1.75,.64-5.6,1.74-7.38,2.35-2.79,.85-7.06,2.33-9.9,2.95-36.28,9.87-74.43,11.53-111.66,8.65,41.63-51.08,155.35-173.69,227.13-145.63,0,0-3.29,6.61-3.29,6.61-.99-.54-2.25-1.23-3.36-1.7-19.04-8.19-40.65-7.96-60.68-3.43-63.77,15.06-118.25,72.95-157.46,122.92h0Zm0,0c5.38-6.95,9.9-13.8,15.32-20.54,3.15-4,7.42-9.58,10.68-13.35,34.43-40.98,76.91-81.08,130.03-95.01,22.61-5.63,48.13-6.12,69.35,4.79,0,0-3.29,6.61-3.29,6.61-20.22-7.57-42.65-1.07-61.63,7.85-19.83,9.33-38.04,22.16-55.17,35.83-34.28,27.89-65.53,59.93-93.86,93.82,0,0-3.53-8-3.53-8,43.06,2.41,86.95-2.12,127.05-18.38,2.59-1,6.47-2.89,9.05-4.02,4.23-1.75,9.18-4.58,13.26-6.68,47.65-26.13,84.61-71.84,99.56-124.15,0,0,2.81,4.83,2.81,4.83-12.8-4.01-25.9-7-39.17-8.75-11.58-1.46-23.36-1.99-35.02-1.28-85.06,4.22-151.15,73.11-185.44,146.43h0Z"/>
  <path class="cls-1" d="M1246.65,547.07c-88.8,29.64-180.19,51.84-272.79,66.67-23.13,3.84-46.38,6.94-69.66,9.81l-34.97,3.86c-11.67,1.1-23.36,2.07-35.05,3.1l-8.76,.77c-2.92,.23-5.85,.38-8.78,.56l-17.56,1.06-17.56,1.06-17.58,.66-17.58,.64c-5.86,.21-11.72,.47-17.59,.48l-35.19,.41-4.4,.04-4.4-.07-8.8-.15-17.59-.3-17.59-.31-17.58-.7-17.58-.7c-5.86-.25-11.71-.68-17.56-1.01-11.71-.72-23.42-1.31-35.1-2.41-11.69-1.01-23.38-1.85-35.04-3.16l-17.5-1.81c-2.91-.32-5.84-.57-8.74-.94l-8.73-1.07-17.46-2.14c-5.82-.67-11.63-1.5-17.43-2.35-11.6-1.71-23.22-3.27-34.78-5.26l-17.35-2.84-4.34-.71-4.33-.79-8.65-1.57-17.3-3.14c-5.76-1.09-11.49-2.3-17.24-3.46-5.74-1.18-11.49-2.3-17.22-3.53l-17.17-3.78c-11.46-2.44-22.84-5.26-34.24-7.96-5.7-1.33-11.36-2.84-17.04-4.29l-17.01-4.39-16.94-4.64-8.47-2.33-8.43-2.45c-22.52-6.42-44.83-13.54-67.05-20.89l16.9,4.74c2.82,.78,5.63,1.6,8.45,2.35l8.48,2.25,16.94,4.54,17,4.33,8.5,2.15,8.52,2.06,17.04,4.13,17.1,3.88c5.7,1.28,11.39,2.62,17.12,3.78,11.44,2.39,22.83,4.96,34.32,7.12l17.19,3.37c5.74,1.1,11.49,2.08,17.24,3.12l17.24,3.08,17.28,2.84,8.64,1.42,4.32,.71,4.33,.64,17.33,2.54c11.54,1.79,23.13,3.15,34.71,4.66,11.56,1.6,23.18,2.76,34.77,4.1l8.7,.98c2.9,.34,5.81,.56,8.71,.85l17.43,1.63c11.61,1.19,23.26,1.9,34.9,2.79l8.73,.64,4.36,.32,4.37,.25,17.47,1c5.83,.31,11.65,.72,17.48,.95l17.49,.64,17.49,.64,17.5,.25,17.5,.24,8.75,.12,4.37,.05,4.38-.05,35-.3c5.83,.01,11.66-.23,17.5-.42l17.49-.58,17.49-.6,17.47-1,17.47-1,8.74-.5,8.73-.68c46.58-3.1,92.98-8.51,139.22-15.04l8.67-1.22c2.89-.41,5.78-.79,8.66-1.29l17.29-2.8,17.29-2.81,17.24-3.11,17.25-3.1c5.74-1.08,11.46-2.27,17.19-3.4l17.19-3.43c5.72-1.18,11.41-2.49,17.13-3.7,45.7-9.81,91.03-21.37,136.07-34.13Z"/>
</svg>