<?xml version="1.0" encoding="UTF-8"?>
<svg id="Calque_1" data-name="Calque 1" xmlns="http://www.w3.org/2000/svg" viewBox="0 0 200 1080">
  <defs>
    <style>
      .cls-1 {
        fill: #e5bd36;
      }
    </style>
  </defs>
  <path class="cls-1" d="M160.81,79.81c-59.46,63.03-95.85,150.96-86.85,238.17,4.05,40.96,17.57,80.67,37.09,116.8,6,11.2,13.61,23.36,19.16,34.76,3.77,7.76,7.75,16.44,10.84,24.49,44.7,110.41,9.75,228.27-62.12,318.18-10.99,13.78-22.7,27.01-35.58,39.01,12.13-12.7,23.05-26.5,33.37-40.68,75.96-105.31,103.91-230.08,38.54-348.05-3.65-6.57-9.42-16.4-12.9-23.05-5.18-9.68-10.16-20.03-14.37-30.15-5.13-12.14-9.76-25.15-13.23-37.87-30.67-103.61,8.18-219.08,86.04-291.6h.01Z"/>
  <path class="cls-1" d="M40.71,757.95c-5.08,38.52-12.97,76.55-21.57,114.4-1.22,5.4-2.51,10.79-3.79,16.18l-6.76-5.7c30.15-12.52,60.58-24.41,91.57-34.72,4.44-1.48,8.89-2.92,13.37-4.27-8.19,4.53-16.5,8.81-24.86,13-27.91,13.95-56.45,26.75-85.16,38.97,10.57-46.41,21.94-92.73,37.2-137.86h0Z"/>
</svg>