<?xml version="1.0" encoding="UTF-8"?>
<svg id="Calque_1" data-name="Calque 1" xmlns="http://www.w3.org/2000/svg" viewBox="0 0 200 1080">
  <defs>
    <style>
      .cls-1 {
        fill: #e5bd36;
      }
    </style>
  </defs>
  <path class="cls-1" d="M7.86,80.73c80.2,72.68,120.21,187.85,89.83,293.44-4.4,16.03-10.23,31.99-17,47.14-6,13.74-14.01,28.14-21.21,41.31-63.5,119.04-33.53,243.34,44.07,347.4,10.55,14.01,21.69,27.64,34.01,40.15-13.07-11.79-24.99-24.83-36.2-38.44C28.06,722.91-8.74,605.73,34.2,494.58c2.96-8.09,6.8-16.84,10.45-24.66,5.36-11.48,12.79-23.78,18.61-35.06,18.94-36.44,31.83-76.36,35.23-117.38,7.61-87.34-30.17-174.68-90.63-236.76h0Z"/>
  <path class="cls-1" d="M138.72,756.88c15.97,44.88,28.08,91.01,39.39,137.25-28.9-11.76-57.64-24.1-85.77-37.61-8.43-4.05-16.8-8.2-25.06-12.6,4.51,1.28,8.98,2.65,13.44,4.05,31.15,9.82,61.76,21.23,92.11,33.27,0,0-6.67,5.8-6.67,5.8-1.37-5.37-2.74-10.73-4.04-16.12-9.2-37.71-17.69-75.61-23.39-114.05h0Z"/>
</svg>