<svg width="51" height="51" viewBox="0 0 51 51" fill="none" xmlns="http://www.w3.org/2000/svg">
<path d="M31.875 25.5C31.875 26.7609 31.5011 27.9934 30.8006 29.0418C30.1001 30.0901 29.1045 30.9072 27.9396 31.3897C26.7747 31.8722 25.4929 31.9985 24.2563 31.7525C23.0197 31.5065 21.8838 30.8994 20.9922 30.0078C20.1006 29.1162 19.4935 27.9803 19.2475 26.7437C19.0015 25.5071 19.1278 24.2253 19.6103 23.0604C20.0928 21.8955 20.9099 20.8999 21.9582 20.1994C23.0066 19.4989 24.2391 19.125 25.5 19.125C27.1891 19.1303 28.8076 19.8036 30.002 20.998C31.1964 22.1924 31.8697 23.8109 31.875 25.5V25.5ZM45.4219 16.7344V34.2656C45.4219 37.2244 44.2465 40.0621 42.1543 42.1543C40.0621 44.2465 37.2244 45.4219 34.2656 45.4219H16.7344C13.7756 45.4219 10.9379 44.2465 8.84571 42.1543C6.75351 40.0621 5.57813 37.2244 5.57812 34.2656V16.7344C5.57813 13.7756 6.75351 10.9379 8.84571 8.84571C10.9379 6.75351 13.7756 5.57813 16.7344 5.57812H34.2656C37.2244 5.57813 40.0621 6.75351 42.1543 8.84571C44.2465 10.9379 45.4219 13.7756 45.4219 16.7344V16.7344ZM35.0625 25.5C35.0625 23.6087 34.5017 21.7599 33.4509 20.1874C32.4002 18.6148 30.9067 17.3892 29.1594 16.6654C27.4121 15.9416 25.4894 15.7523 23.6344 16.1212C21.7795 16.4902 20.0756 17.401 18.7383 18.7383C17.401 20.0756 16.4902 21.7795 16.1212 23.6344C15.7523 25.4894 15.9416 27.4121 16.6654 29.1594C17.3892 30.9067 18.6148 32.4002 20.1874 33.4509C21.7599 34.5017 23.6087 35.0625 25.5 35.0625C28.0361 35.0625 30.4684 34.055 32.2617 32.2617C34.055 30.4684 35.0625 28.0361 35.0625 25.5ZM38.25 15.1406C38.25 14.6678 38.1098 14.2056 37.8471 13.8125C37.5844 13.4193 37.2111 13.1129 36.7742 12.932C36.3374 12.751 35.8567 12.7037 35.393 12.7959C34.9293 12.8882 34.5033 13.1159 34.1689 13.4502C33.8346 13.7845 33.6069 14.2105 33.5147 14.6742C33.4224 15.138 33.4698 15.6186 33.6507 16.0555C33.8317 16.4923 34.1381 16.8657 34.5312 17.1284C34.9244 17.391 35.3866 17.5312 35.8594 17.5312C36.4934 17.5312 37.1015 17.2794 37.5498 16.8311C37.9981 16.3827 38.25 15.7747 38.25 15.1406Z" fill="black"/>
</svg>
