<svg width="82" height="82" viewBox="0 0 82 82" fill="none" xmlns="http://www.w3.org/2000/svg">
<g clip-path="url(#clip0_2_62)">
<path d="M45.428 0.235693C40.5285 -0.989182 35.9775 2.71619 35.6495 7.51319C35.2805 12.8996 34.4707 17.8452 33.456 20.7869C32.8154 22.6319 31.0011 25.9786 28.126 29.1868C25.2714 32.3797 21.5558 35.2241 17.2046 36.4131C13.7606 37.3509 10.25 40.3337 10.25 44.6899V65.1951C10.25 69.5257 13.7452 72.6981 17.671 73.1132C23.1547 73.6974 25.6865 75.2401 28.2695 76.8186L28.5155 76.9723C29.9095 77.8179 31.4777 78.7558 33.4867 79.4528C35.5214 80.1498 37.8994 80.5649 41 80.5649H58.9375C63.7396 80.5649 67.1324 78.1203 68.8493 75.1119C69.679 73.6923 70.1275 72.0821 70.151 70.4379C70.151 69.6589 70.0331 68.8389 69.7564 68.0599C70.7865 66.7121 71.7039 65.0977 72.2574 63.4423C72.8211 61.7511 73.1389 59.5371 72.2779 57.5537C72.6315 56.8874 72.8929 56.1751 73.0928 55.4883C73.4874 54.1046 73.6719 52.5773 73.6719 51.0962C73.6719 49.6202 73.4874 48.0981 73.0928 46.7092C72.9135 46.0707 72.6768 45.4497 72.3855 44.8539C73.2829 43.5772 73.8603 42.1034 74.069 40.5568C74.2777 39.0103 74.1116 37.4362 73.5847 35.9672C72.529 32.9332 70.0895 30.3297 67.4347 29.4482C63.0939 28.0029 58.1944 28.0337 54.5403 28.3668C53.7816 28.4351 53.0246 28.5205 52.2699 28.6231C54.0478 21.0093 53.9387 13.0765 51.9521 5.51444C51.6065 4.30284 50.9435 3.20555 50.0317 2.33607C49.1198 1.46659 47.9923 0.85647 46.7656 0.568818L45.428 0.235693ZM58.9375 75.4451H41C38.3862 75.4451 36.5771 75.0914 35.1575 74.6046C33.7174 74.1074 32.5643 73.4361 31.1805 72.5904L30.9755 72.4674C28.1311 70.7301 24.8357 68.7211 18.2142 68.0189C16.5076 67.8344 15.375 66.5327 15.375 65.2002V44.6899C15.375 43.3882 16.5332 41.9071 18.5525 41.3587C24.1644 39.8212 28.6846 36.2542 31.9493 32.6052C35.2036 28.9664 37.4023 25.0458 38.294 22.4679C39.5394 18.8804 40.3799 13.4069 40.7642 7.86169C40.8924 6.00644 42.6093 4.81744 44.1826 5.20694L45.5254 5.54519C46.3454 5.75019 46.8476 6.27807 47.0014 6.85207C49.0943 14.8267 48.8363 23.2364 46.2583 31.0677C46.1123 31.5033 46.0862 31.97 46.1825 32.4192C46.2788 32.8683 46.4941 33.2833 46.8059 33.6207C47.1176 33.9581 47.5143 34.2055 47.9544 34.337C48.3945 34.4685 48.8619 34.4793 49.3076 34.3682L49.323 34.3631L49.3947 34.3477L49.692 34.2759C51.4445 33.9038 53.2174 33.6351 55.0015 33.4713C58.3994 33.1638 62.4686 33.1946 65.8153 34.3118C66.7121 34.6091 68.1215 35.8493 68.7365 37.6431C69.2849 39.2216 69.1824 41.0768 67.3732 42.8808L65.5641 44.6899L67.3732 46.5042C67.5936 46.7246 67.9114 47.2268 68.1625 48.1186C68.4085 48.9744 68.5469 50.0148 68.5469 51.0962C68.5469 52.1827 68.4085 53.2179 68.1625 54.0789C67.9062 54.9707 67.5936 55.4729 67.3732 55.6933L65.5641 57.5024L67.3732 59.3167C67.6141 59.5576 67.9319 60.2238 67.3989 61.8177C66.8435 63.3633 65.9606 64.7706 64.8107 65.9433L63.0016 67.7524L64.8107 69.5667C64.8415 69.5923 65.0209 69.8229 65.0209 70.4379C64.9981 71.1897 64.7848 71.9233 64.4007 72.5699C63.5551 74.0459 61.8229 75.4399 58.9375 75.4399V75.4451Z" fill="black"/>
</g>
<defs>
<clipPath id="clip0_2_62">
<rect width="82" height="82" fill="white"/>
</clipPath>
</defs>
</svg>
