<?xml version="1.0" encoding="UTF-8"?>
<svg id="joy" xmlns="http://www.w3.org/2000/svg" viewBox="0 0 1920 1080">
  <defs>
    <style>
      .cls-1 {
        fill: none;
        stroke: #91a644;
        stroke-linecap: round;
        stroke-linejoin: round;
        stroke-width: 10px;
      }

      .cls-2 {
        fill: #91a644;
      }
    </style>
  </defs>
  <path class="cls-1" d="M995.28,752.11c-4.19-4.24-8.49-8.32-12.89-12.27-47.5-42.64-106.95-67.96-171.44-67.96-75.35,0-143.82,34.57-194.38,90.93-1.45,1.59-2.88,3.23-4.3,4.87-111.04-179.49-145.32-352.27-106.85-415.44,37.2-61.06,138.68-13.55,161.52-2.24,5.7-10.74,52.25-95.4,132.57-96.45,80.44-1.05,128.17,82.61,135.22,95.71l.09,.74h.3c-.11-.22-.24-.47-.4-.74l-.03-.22c102.55-60.14,133.99-21.85,140.62-12.49,38.93,54.89,8.69,219.33-80.04,415.57Z"/>
  <path class="cls-2" d="M701.26,509.01c9.45,26.68,15.93,54.07,21.66,81.69,5.5,27.67,10.2,55.41,11.86,83.67-9.48-26.68-15.95-54.06-21.66-81.69-5.48-27.67-10.18-55.42-11.86-83.67h0Z"/>
  <path class="cls-2" d="M881.69,512.11c.01,26.88-3.02,53.41-6.82,79.91-4.05,26.47-8.86,52.73-16.71,78.44-.03-26.88,3-53.41,6.82-79.91,4.06-26.46,8.88-52.73,16.71-78.44h0Z"/>
</svg>